<svg width="186" height="163" viewBox="0 0 186 163" fill="none" xmlns="http://www.w3.org/2000/svg">
<g filter="url(#filter0_d_4054:97776)">
<rect x="3" width="180" height="156" rx="10.0088" fill="white"/>
</g>
<path fill-rule="evenodd" clip-rule="evenodd" d="M40.5 25.5H145.5V130.5H40.5V25.5Z" fill="white"/>
<path fill-rule="evenodd" clip-rule="evenodd" d="M100.768 43.4758C101.03 43.4758 101.28 43.372 101.465 43.1871C101.65 43.0022 101.754 42.7514 101.754 42.4899C101.754 42.2284 101.65 41.9776 101.465 41.7927C101.28 41.6078 101.03 41.504 100.768 41.504C100.507 41.504 100.256 41.6078 100.071 41.7927C99.8861 41.9776 99.7822 42.2284 99.7822 42.4899C99.7822 42.7514 99.8861 43.0022 100.071 43.1871C100.256 43.372 100.507 43.4758 100.768 43.4758V43.4758Z" fill="#004D8F"/>
<path fill-rule="evenodd" clip-rule="evenodd" d="M87.1607 41.7055C87.3852 41.7026 87.5997 41.6122 87.7585 41.4534C87.9172 41.2947 88.0077 41.0802 88.0105 40.8557C87.9934 40.6428 87.8967 40.4441 87.7398 40.2992C87.5828 40.1544 87.377 40.0739 87.1634 40.0739C86.9498 40.0739 86.7441 40.1544 86.5871 40.2992C86.4301 40.4441 86.3335 40.6428 86.3164 40.8557C86.3192 41.0793 86.4089 41.293 86.5665 41.4516C86.7241 41.6102 86.9372 41.7012 87.1607 41.7055V41.7055Z" fill="#004D8F"/>
<path fill-rule="evenodd" clip-rule="evenodd" d="M76.9419 62.5681L76.5225 62.1432C77.7208 61.0156 78.9138 59.3215 79.1262 58.3302C79.1251 58.2346 79.145 58.1399 79.1845 58.0528C79.224 57.9658 79.2821 57.8884 79.3547 57.8262C79.4273 57.7641 79.5127 57.7186 79.6048 57.693C79.6969 57.6673 79.7935 57.6623 79.8877 57.678C79.982 57.6938 80.0717 57.7301 80.1505 57.7843C80.2292 57.8385 80.2951 57.9093 80.3435 57.9917C80.3919 58.0742 80.4217 58.1662 80.4306 58.2614C80.4396 58.3566 80.4276 58.4526 80.3954 58.5426C80.0468 59.8826 78.4943 61.4351 76.9419 62.5626V62.5681Z" fill="#004D8F"/>
<path fill-rule="evenodd" clip-rule="evenodd" d="M68.2805 42.054C66.1615 42.9691 65.8837 45.1589 67.3599 46.4934C69.1248 48.0459 72.1534 46.7059 71.8756 44.2383C74.2669 44.3799 75.8194 41.8415 75.4653 40.1529C76.5275 39.2378 76.5983 37.2604 75.3291 36.4869C73.9183 35.6426 72.6491 35.9422 71.8048 37.5437C69.6259 37.4021 67.5015 39.0961 68.2805 42.054L67.2891 41.6345C65.9491 38.7421 68.2805 35.8496 71.162 36.5577C71.3772 36.0983 71.6882 35.6902 72.0741 35.3608C72.46 35.0315 72.9119 34.7884 73.3994 34.6481C73.887 34.5078 74.3989 34.4734 74.9008 34.5472C75.4028 34.621 75.8831 34.8014 76.3096 35.0761C78.1399 36.2037 78.5648 39.1669 76.5929 40.5723C77.508 43.2523 75.6015 45.5075 72.7799 45.2242C72.4258 48.7486 69.1847 49.1734 67.0004 47.5502C66.0137 46.719 65.341 45.5753 65.0939 44.3091C64.8161 43.2523 64.8161 42.3372 63.8247 41.2805C63.2062 40.7846 62.4385 40.512 61.6458 40.507C61.6458 37.9686 59.3199 35.6426 56.362 36.7702C55.3053 35.8496 53.9653 35.7842 53.0284 36.939C52.8396 37.186 52.7103 37.4731 52.6506 37.7781C52.5909 38.0831 52.6023 38.3977 52.684 38.6976C52.7657 38.9974 52.9154 39.2744 53.1216 39.507C53.3277 39.7396 53.5848 39.9214 53.8727 40.0385C53.8019 42.3644 55.5667 43.8515 58.1705 43.6336C58.2413 44.832 59.5813 46.0304 60.8505 46.172L60.7797 46.8039C59.5105 46.6623 58.8078 47.0872 57.9635 48.1439C54.9294 48.0023 52.8159 49.4131 52.8867 51.5974C52.4651 51.6405 52.0645 51.8027 51.7316 52.065C51.3987 52.3273 51.1473 52.6789 51.0068 53.0787C50.8663 53.4786 50.8424 53.9102 50.938 54.323C51.0336 54.7359 51.2448 55.1131 51.5467 55.4105C51.7996 55.6731 52.1144 55.8682 52.4622 55.9776C52.81 56.0871 53.1797 56.1075 53.5375 56.0371C53.8952 55.9666 54.2296 55.8075 54.5099 55.5743C54.7902 55.3411 55.0075 55.0413 55.1419 54.7023C57.3207 55.1272 59.2273 53.5748 59.2981 51.8153C61.2754 51.8153 62.1905 50.971 62.5664 49.1353L63.2691 49.2061C63.4815 51.178 62.5664 53.0845 60.1696 52.8721C60.0988 55.2688 57.8437 56.538 55.6593 55.7591C54.6625 57.6384 52.342 58.3356 50.4409 56.5053C50.0081 56.116 49.6872 55.6182 49.5113 55.0633C49.3353 54.5084 49.3108 53.9166 49.4402 53.349C49.5696 52.7814 49.8482 52.2587 50.2473 51.8349C50.6463 51.4111 51.1514 51.1016 51.7101 50.9383C51.7101 48.6124 53.4696 46.4226 56.7869 47.2724C56.9124 46.9714 57.1148 46.7087 57.3739 46.5108C57.6331 46.3129 57.9397 46.1866 58.2631 46.1448C57.93 46.0588 57.6277 45.881 57.3908 45.6315C57.1539 45.3821 56.9918 45.0711 56.9231 44.734C56.3603 44.8587 55.7752 44.8394 55.2218 44.6779C54.6685 44.5164 54.1648 44.2178 53.7575 43.81C53.3502 43.4021 53.0523 42.898 52.8915 42.3445C52.7308 41.7909 52.7122 41.2058 52.8377 40.6431C50.5826 39.4448 50.5118 37.1896 51.6393 35.8551C52.7669 34.5205 54.8096 34.161 56.5037 35.6426C59.5323 34.0085 62.8442 36.0621 62.6317 39.4557C64.7507 39.3195 66.0199 41.0898 65.7366 42.98C65.8365 42.631 66.036 42.3188 66.3109 42.0817C66.5857 41.8446 66.9238 41.693 67.2836 41.6454L68.275 42.0649L68.2805 42.054Z" fill="#004D8F"/>
<path fill-rule="evenodd" clip-rule="evenodd" d="M73.4172 37.9687L73.9129 38.3173C72.902 40.4076 71.4876 42.2773 69.7513 43.8189L69.2065 43.3232C70.2633 41.6346 72.4476 38.813 73.4336 37.9687H73.4172Z" fill="#004D8F"/>
<path fill-rule="evenodd" clip-rule="evenodd" d="M58.9005 49.2444L59.1783 49.7891C57.7594 51.1565 56.1746 52.3406 54.461 53.3134L54.0361 52.7687C55.4335 51.3121 57.0811 50.1184 58.9005 49.2444V49.2444Z" fill="#004D8F"/>
<path fill-rule="evenodd" clip-rule="evenodd" d="M61.7871 43.1815L61.2424 43.8897C59.6082 42.8329 56.4489 40.0113 55.7407 38.9545L56.2364 38.4588C57.7889 39.2378 60.7467 41.9123 61.8034 43.1815H61.7871Z" fill="#004D8F"/>
<path fill-rule="evenodd" clip-rule="evenodd" d="M58.8299 70.1071C59.0423 71.0222 58.8299 72.0789 59.6742 73.0703C60.6221 74.3174 61.6579 75.4951 62.7736 76.5947C61.1558 77.2483 57.9855 78.5665 55.7522 78.8498C55.2436 78.9564 54.7641 79.172 54.3468 79.4817C53.9771 80.2098 53.7375 80.997 53.6387 81.8076C53.5679 82.5103 53.5679 83.2893 53.5679 84.0628C53.6525 85.5979 54.0239 87.1037 54.6628 88.5022C55.4417 89.9839 56.2152 90.6811 57.1303 91.1114C57.5443 91.0028 57.9718 90.9551 58.3995 90.9698C59.0987 90.9581 59.7914 91.1044 60.4262 91.3977C61.0609 91.691 61.6213 92.1239 62.0655 92.6639C62.2779 93.0125 62.7682 93.0833 63.3347 93.0833C64.8397 93.0004 66.3167 92.6423 67.6924 92.0265C68.0465 91.8141 68.8908 91.1822 69.7351 90.5504C70.5794 89.9185 75.4438 85.7568 77.5627 84.7654C79.0676 85.5748 80.7362 86.0329 82.4434 86.1055C82.7284 86.1441 83.0185 86.1199 83.2932 86.0346C83.8379 85.8985 84.6332 85.686 85.6191 85.4899C87.0351 85.1776 88.4713 84.9646 89.917 84.8526C91.4694 84.9234 96.0505 84.9942 97.1781 84.9942C98.3056 84.9942 99.9017 84.9234 100.561 84.8526C102.329 84.3322 104.069 83.7214 105.774 83.0223C108.274 81.7032 110.634 80.1336 112.817 78.3378C113.158 78.0693 113.467 77.7622 113.738 77.4226C113.803 77.281 113.874 77.2102 113.874 77.1394C113.874 77.0686 113.803 74.1107 113.803 74.1107C113.803 74.1107 114.892 72.9832 115.285 72.5583V72.4167C115.001 71.0268 114.905 69.605 115.001 68.1897L114.037 67.7103C113.948 69.6556 113.367 71.5466 112.348 73.2065C110.796 73.419 107.767 74.3341 106.711 75.6033L107.343 75.7449C108.344 75.1482 109.488 74.8322 110.654 74.8298C111.711 74.8298 112.207 75.113 112.207 75.3745C112.144 75.6885 112.049 75.9952 111.924 76.2896C111.856 76.4995 111.734 76.6876 111.57 76.8343C110.098 78.4781 108.36 79.8612 106.427 80.9252C104.952 81.7293 103.392 82.3669 101.775 82.8262C101.105 82.9553 100.445 83.1375 99.8036 83.371C99.0247 83.371 95.0809 83.2293 92.7549 83.2293C90.429 83.2293 85.6355 83.578 84.1538 83.932C83.4511 84.1445 83.2387 84.4277 82.4598 84.4277C80.9836 84.4277 79.0062 83.6488 77.8079 83.0877C77.4354 83.1728 77.0788 83.3162 76.7511 83.5126C75.9068 83.932 74.0275 86.612 72.8782 85.7677C72.3334 86.9661 69.8441 88.0229 69.0651 89.2212C69.1359 88.6765 70.1219 84.5693 70.1927 83.7196C70.1927 83.578 70.2635 83.4418 70.1219 83.3002C69.2776 81.8185 66.7392 80.9034 65.3284 80.6201C64.9797 80.5493 64.7836 80.4785 64.484 80.4077L62.2289 79.7758L60.1862 80.4077L62.583 80.8326L59.5489 82.8753C60.0936 82.6628 63.3619 81.7477 63.5689 81.6769C63.8889 81.5702 64.2349 81.5702 64.5549 81.6769C65.0451 81.8185 66.2435 82.1018 67.0224 82.3796C67.5848 82.717 68.0429 83.2034 68.3461 83.785C68.4284 84.2509 68.474 84.7227 68.4823 85.1958C68.4829 85.8204 68.4153 86.4433 68.2807 87.0533C67.994 88.1147 67.5672 89.1332 67.0115 90.0819C66.9121 90.3019 66.7662 90.4976 66.5837 90.6556C66.4013 90.8136 66.1867 90.9301 65.9548 90.997C65.2243 91.3342 64.433 91.5195 63.6288 91.5417C62.9915 91.5417 62.5721 91.4709 62.2888 91.1169C61.7128 90.4113 60.9562 89.8751 60.0997 89.5653C59.2431 89.2555 58.3186 89.1836 57.4245 89.3574C56.1553 88.5785 54.8861 86.0891 54.8861 84.139C54.9934 82.7615 55.3017 81.4072 55.8012 80.119C57.8494 79.8412 62.0056 78.2887 63.972 77.3954C64.3969 77.3954 65.6062 76.9705 66.6956 76.9705C69.3756 76.9705 72.0502 79.2965 73.6734 80.9197C73.8936 80.5456 74.2149 80.2413 74.6003 80.0418C74.9858 79.8424 75.4198 79.7558 75.8523 79.7922C77.7534 79.7922 78.881 81.5516 79.3767 83.3165L80.3626 82.6084C80.1624 81.5008 79.6481 80.4741 78.881 79.6505C78.0866 78.9285 77.0661 78.5049 75.9939 78.4522C75.3621 78.4522 74.7956 78.5938 74.3598 78.5938C73.0252 78.5938 72.4587 77.9565 71.402 77.2538C70.3452 76.5511 68.3461 75.3963 66.8645 75.3963C65.9493 75.3963 65.5245 75.7449 64.7509 75.7449C64.3369 75.7765 63.9226 75.6866 63.5588 75.4863C63.1951 75.2861 62.8976 74.9841 62.7028 74.6173C62.1077 74.0876 61.5439 73.5238 61.0142 72.9287C60.7377 72.3978 60.5238 71.8366 60.3769 71.2564L58.8299 70.1288V70.1071Z" fill="#004D8F"/>
<path fill-rule="evenodd" clip-rule="evenodd" d="M60.3772 71.2563C60.712 71.6274 61.0666 71.9802 61.4394 72.3131C61.8588 72.5963 62.3545 72.8578 62.7739 73.1574C63.482 73.5114 64.2555 73.9363 64.9528 74.2468C65.7184 74.3864 66.4951 74.4557 67.2733 74.4538C68.4063 74.4538 69.7409 74.2468 70.8684 74.8079C71.6474 75.0911 71.6474 75.9354 72.2793 76.1479C73.1944 76.502 75.7328 76.5728 77.1436 76.5728C79.7237 76.576 82.2973 76.315 84.8241 75.7938L83.9798 74.8079C81.7884 75.1288 79.5806 75.3252 77.3669 75.3962C75.041 75.3962 72.7858 74.9713 72.7858 74.0562C72.7858 73.348 73.4885 72.3621 74.8994 72.3621C76.3102 72.3621 78.6307 73.2772 79.0556 73.4352C79.1947 73.4811 79.3416 73.4985 79.4877 73.4864C79.6337 73.4742 79.7757 73.4327 79.9053 73.3644L80.7496 72.9449C79.6221 72.4002 75.602 71.0384 74.213 71.0384C73.9313 70.9975 73.6437 71.0354 73.3822 71.1479C73.1207 71.2603 72.8954 71.4431 72.7314 71.6757C72.2357 72.3784 70.7595 73.0158 68.4989 73.0158C67.3239 73.0013 66.1543 72.8533 65.0127 72.5745C63.9936 72.1126 63.026 71.5448 62.1257 70.8805C61.0378 70.1725 60.11 69.2448 59.4021 68.1569C59.168 67.8718 59.0341 67.5177 59.0208 67.1491C59.0208 66.8659 59.157 66.6534 59.157 66.441C59.3563 66.7111 59.595 66.9498 59.8651 67.1491C61.1962 68.3967 62.8619 69.2296 64.6586 69.5459C65.1632 69.6815 65.6832 69.7511 66.2056 69.7529C66.9432 69.7113 67.6428 69.4125 68.183 68.9086L67.404 68.0643C67.0792 68.1259 66.7484 68.1496 66.4181 68.1351C63.7435 68.1351 60.3554 66.441 59.5819 64.3983C59.511 64.1859 59.3694 64.115 59.511 63.9026C59.5983 63.6016 59.6692 63.2961 59.7235 62.9875C59.8651 63.1291 60.2192 63.4124 60.5678 63.6956C61.5537 64.3275 63.4603 65.1718 63.8797 65.4551C64.6311 65.2137 65.3602 64.9075 66.0586 64.5399C66.7334 64.1935 67.479 64.0071 68.2374 63.9952C70.2093 63.9952 72.4645 65.1228 74.578 66.1741L75.9888 65.6294C74.0877 64.2894 70.0677 62.4591 67.818 62.4591C66.478 62.4591 65.2088 63.445 64.2937 63.445C63.2369 63.445 60.1375 61.8926 60.1375 60.6234C60.1375 59.6375 62.1094 59.0764 65.4212 58.7223C64.8765 59.4958 64.2937 60.411 63.7871 61.2607L64.6369 61.751C69.7082 54.3537 75.0682 49.5602 79.5077 46.5969C80.6443 45.9676 81.5378 44.9763 82.0461 43.7807C83.4569 40.8882 84.7697 38.7747 87.0466 38.7747C87.5359 38.7923 88.0157 38.9147 88.4536 39.1337C88.8915 39.3526 89.2773 39.663 89.585 40.0439L91.2191 40.5396L89.5251 41.6672L91.2191 42.3699C89.7781 42.858 88.4558 43.6437 87.3382 44.676C86.2205 45.7082 85.3324 46.964 84.7315 48.3618C82.4056 48.4326 81.278 50.4045 80.5045 51.9569C79.9598 53.0845 79.1645 53.5039 77.8953 54.2829L68.281 61.0156L69.6156 61.228L78.5708 55.2361C80.3302 54.0378 81.18 53.1226 81.5994 52.3437C82.3783 50.655 83.2935 49.3859 85.0529 49.3859C86.0078 49.4415 86.9099 49.8422 87.5913 50.5134L89.1438 51.0091L87.4497 52.0659L88.8605 52.9102C84.7697 54.1794 82.2367 57.1372 80.7551 62.775L81.8118 62.9875C82.2912 61.2227 82.9769 59.5205 83.8545 57.9161C86.2513 57.9161 88.6481 57.8453 91.0448 57.8453C97.32 57.8453 102.533 58.1231 105.355 58.9021L104.369 57.208C101.335 56.6633 96.9659 56.4345 91.0448 56.4345C89.0021 56.4345 87.0302 56.5053 84.9821 56.5053C86.6756 54.8713 88.7649 53.7056 91.0448 53.1226L88.9803 51.9951L91.2355 50.7259L88.136 49.5983C87.5798 49.0175 86.8783 48.5962 86.1042 48.3781C87.0902 45.344 90.462 43.5846 93.7303 42.3862L91.4751 41.4711L93.7194 40.2073L90.1951 39.1179C89.8309 38.6228 89.3524 38.223 88.8004 37.9527C88.2484 37.6824 87.6392 37.5496 87.0248 37.5655C83.7565 37.5655 82.4383 40.3871 81.1037 42.8547C80.676 43.9755 79.881 44.9183 78.8486 45.5292C75.6767 47.6402 72.7451 50.0914 70.1058 52.8394C68.5534 51.7118 65.2415 48.3291 64.3972 46.4934C64.1029 46.9313 63.8667 47.4055 63.6945 47.9042C64.0431 48.2583 67.8507 52.0659 69.2615 53.7545C69.1502 53.858 69.0548 53.9773 68.9783 54.1086C67.4258 54.3918 63.482 54.8113 62.142 54.5988L61.4394 55.9388C62.4253 55.868 66.2982 55.3941 67.976 55.3069C67.4803 55.8517 66.99 56.5053 66.4943 57.1372C61.423 57.6819 58.1057 58.7714 58.1057 60.5907C58.1057 60.874 58.1765 61.228 58.1765 61.5767C58.2017 61.8707 58.1337 62.1652 57.9822 62.4184C57.8306 62.6716 57.6032 62.8707 57.3322 62.9875C56.9781 63.1999 56.9781 63.4124 57.1197 63.6248C57.4765 64.1081 57.7831 64.6264 58.0349 65.1718C57.9541 65.607 57.732 66.0033 57.403 66.2994C57.1197 66.5826 57.1197 66.6534 57.3322 67.0075L58.8138 70.107L60.3772 71.2563Z" fill="#004D8F"/>
<path fill-rule="evenodd" clip-rule="evenodd" d="M122.752 53.9671C122.452 54.3039 122.17 54.6567 121.908 55.0238L121.118 53.8962C123.798 50.3011 130.989 48.6125 135.216 48.2584V46.3573C134.671 46.4935 134.088 46.706 133.527 46.8476C132.885 47.036 132.219 47.1314 131.55 47.1308C131.298 47.159 131.044 47.124 130.81 47.0288C130.576 46.9337 130.37 46.7815 130.21 46.5861C129.665 45.8126 130.21 44.6142 132.045 43.4867L130.564 42.2175C129.436 43.6991 128.385 45.3169 127.252 46.2375C126.119 47.1581 125.138 47.5721 124.288 46.9402C123.798 46.5861 123.657 46.4445 123.586 45.5294C123.657 44.1894 124.43 42.1467 125.138 40.8067L123.444 40.5942C123.155 42.4407 122.457 44.1994 121.401 45.7418C120.404 47.3613 119.054 48.7353 117.452 49.7618L116.466 48.8413C117.933 48.0124 119.188 46.8545 120.132 45.4585C121.331 43.6283 122.311 41.3732 122.311 39.4013L127.246 39.8207C126.285 41.155 125.525 42.6233 124.991 44.1785C124.779 44.9574 124.779 45.5893 125.062 45.8126C125.552 46.1667 126.473 45.5294 127.388 44.6142C128.484 43.2942 129.496 41.9061 130.417 40.458L134.083 43.4159C132.448 44.2602 130.912 45.2461 131.196 45.8126C131.479 46.3791 132.53 46.1667 133.658 45.8126C134.599 45.5308 135.5 45.128 136.338 44.6142V49.4677C133.783 49.5311 131.247 49.9341 128.799 50.6661C129.501 51.5812 131.402 51.9353 132.612 52.1477L132.067 56.0915C129.155 54.7106 125.975 53.9854 122.752 53.9671L124.022 52.8395C126.483 52.9253 128.903 53.4993 131.141 54.5281L131.348 53.0519C129.943 52.8395 128.178 52.066 127.404 51.1454C126.205 51.5539 125.067 52.1238 124.022 52.8395L122.752 53.9671Z" fill="#004D8F"/>
<path fill-rule="evenodd" clip-rule="evenodd" d="M107.958 66.5118L109.086 63.9734C107.723 62.3725 106.474 60.6779 105.349 58.9021L104.363 57.208C102.037 52.8503 102.881 50.7259 101.683 48.7485C100.626 47.2015 95.6912 48.2038 94.9177 48.3291L96.3285 46.0032L93.5068 46.1993L95.9036 43.3776C96.2117 42.8562 96.4256 42.2846 96.5355 41.689C96.9604 40.1365 98.2296 37.5981 102.037 37.5981C106.193 37.5981 107.533 40.9808 109.293 42.4625C111.412 44.1511 114.086 46.4771 116.483 48.803L117.469 49.7236C118.775 51.0337 119.994 52.4275 121.119 53.8961L121.898 55.0237C126.969 62.3556 133.173 76.3821 135.989 82.8044C136.202 83.4417 136.414 84.0736 136.627 84.5692C134.72 83.5125 132.676 82.2415 130.493 80.7562L129.289 79.9065L126.963 78.2124L125.694 77.1556C124.921 76.6109 124.147 75.9572 123.439 75.3254L126.021 89.9129C126.163 90.8281 126.936 90.6864 127.503 89.9129C128.069 89.1394 128.347 88.927 128.047 87.9411L125.722 77.1556L126.991 78.2124L129.246 87.3037C129.458 88.1535 129.791 88.4313 130.798 88.4313C131.806 88.4313 131.926 88.1535 131.784 87.5162L129.317 79.8901L130.515 80.7344L132.836 87.5979C133.473 89.3628 132.836 89.5698 131.779 89.5698C130.722 89.5698 129.807 89.292 129.24 89.6406C128.674 89.9892 127.971 91.0514 127.062 91.8957C126.359 92.6747 125.231 92.533 125.019 91.0514L122.208 74.1978C120.432 72.5938 118.739 70.8993 117.137 69.121C116.499 68.8378 115.726 68.4837 115.018 68.2059L114.037 67.7102C113.618 67.4978 113.335 67.4269 113.264 67.3561C112.54 68.314 111.738 69.2104 110.867 70.0362C110.695 70.2423 110.479 70.4068 110.235 70.5172C109.991 70.6276 109.724 70.681 109.456 70.6735C109.213 70.6954 108.969 70.6462 108.754 70.5318C108.427 70.3201 108.16 70.0274 107.98 69.6821C107.768 69.4043 107.484 68.9794 107.201 68.5545C106.656 67.6394 106.074 66.441 105.512 65.5259C104.968 64.4691 104.385 63.6956 104.314 63.554C104.232 63.386 104.11 63.2403 103.96 63.1291C103.602 63.6982 103.413 64.3576 103.415 65.0302L102.429 64.6816C102.506 63.977 102.69 63.2883 102.974 62.6389C102.951 62.4331 102.863 62.2401 102.723 62.0874C102.583 61.9348 102.398 61.8303 102.195 61.7891C101.705 61.7891 101.209 62.2848 101.002 63.2707L99.9127 63.7664C99.9835 62.1323 100.55 60.3783 102.168 60.3783C103.437 60.3783 104.287 61.3697 104.848 62.2848C105.409 63.1999 107.528 65.9508 107.953 66.5118L108.726 67.4978C108.821 67.9314 109.006 68.3399 109.271 68.6961C109.554 69.121 109.816 69.121 110.257 68.6961C110.765 68.3147 111.244 67.8959 111.69 67.4433C112.123 66.9794 112.523 66.4862 112.888 65.9671C113.433 66.1795 114.582 66.7406 115.426 67.0947C111.69 62.4428 108.024 56.8049 106.477 52.9973C105.839 51.3632 107.108 50.8838 107.675 52.4526C109.364 56.6851 114.212 64.224 117.823 68.1732C121.914 72.6835 129.453 79.3073 134.388 81.9165C133.68 80.5056 132.754 78.5338 131.637 76.2078C125.645 72.8251 119.653 66.6208 116.837 61.2662L118.036 61.4078C120.645 66.0597 126.914 72.2586 130.651 74.0235C127.269 66.8332 122.829 57.7418 119.446 53.8689C115.979 50.0698 112.231 46.5356 108.236 43.2959C106.057 41.324 105.137 38.9382 102.037 38.9382C99.4279 38.9382 98.0171 40.8392 97.5214 42.6749C97.4263 43.0208 97.2852 43.3524 97.102 43.6609L95.8328 45.1098L98.5128 44.8266L96.9604 46.9401C96.9604 46.9401 101.117 46.0249 102.598 47.9968C104.151 50.1103 103.143 52.5071 105.768 57.257C107.146 59.5889 108.752 61.7785 110.562 63.7937L108.732 67.525L107.958 66.5391V66.5118Z" fill="#004D8F"/>
<path fill-rule="evenodd" clip-rule="evenodd" d="M66.9352 67.1491L66.2979 66.7242C66.8362 66.2946 67.4298 65.9391 68.0627 65.6674C68.3999 65.5357 68.7576 65.4638 69.1195 65.455C69.7952 65.4856 70.4486 65.7065 71.0042 66.0923C71.9193 66.5826 72.9816 67.1491 73.8259 67.1491C74.1091 67.1491 74.3706 67.0783 74.741 67.0783C75.5853 67.0783 76.3751 67.4269 76.7837 67.4269C77.0669 67.4269 77.2086 67.2199 77.421 66.9366C77.8636 66.2819 78.5054 65.7872 79.2513 65.5258C80.172 65.1666 81.156 64.998 82.1437 65.0301C82.853 65.0396 83.5602 65.1107 84.2572 65.2425C84.2572 65.2425 83.6199 66.0215 83.4837 66.2285C82.5632 66.2285 80.9453 66.1631 79.8886 66.5826C79.6228 66.6498 79.3875 66.8047 79.2205 67.0221C79.0534 67.2395 78.9645 67.5068 78.968 67.7809C78.968 68.5544 79.8886 68.9085 80.8037 69.1918C81.3811 69.324 81.9709 69.3952 82.5632 69.4042C83.6661 69.3157 84.7595 69.1335 85.8315 68.8595C86.974 68.6384 88.1019 68.3473 89.2087 67.9879L89.7534 68.9739C88.0993 69.5659 86.4044 70.0374 84.6821 70.3847C83.8518 70.5967 83.0004 70.7155 82.1437 70.7388C80.7898 70.6556 79.471 70.2743 78.2817 69.6221C77.2957 69.1972 76.4514 68.7015 75.6016 68.7015C74.7218 68.7211 73.8657 68.9913 73.1341 69.4805C72.2735 70.025 71.3803 70.5162 70.4595 70.9512C69.7188 71.2502 68.9318 71.4179 68.1336 71.4469C67.5825 71.4889 67.0339 71.3388 66.5811 71.022L67.8503 70.2485C68.0398 70.3712 68.2571 70.4443 68.4822 70.461C68.8056 70.4254 69.1186 70.3254 69.4027 70.1668C69.7445 70.029 70.0743 69.8632 70.3887 69.6711C70.8789 69.3225 71.0206 69.1264 71.233 68.9684C71.3409 68.9226 71.4339 68.8476 71.5016 68.7519C71.5694 68.6562 71.6091 68.5435 71.6165 68.4265C71.6238 68.3095 71.5985 68.1927 71.5433 68.0893C71.488 67.9859 71.4051 67.8999 71.3038 67.8409C71.0206 67.6284 70.8081 67.416 70.5303 67.209C70.0564 66.8655 69.481 66.691 68.8962 66.7133C68.2136 66.6869 67.5354 66.8331 66.9243 67.1382L66.9352 67.1491Z" fill="#004D8F"/>
<path fill-rule="evenodd" clip-rule="evenodd" d="M84.8351 67.6394C84.5112 67.5518 84.1818 67.4863 83.8491 67.4433C84.3212 66.8101 84.8934 66.2581 85.5432 65.8092C86.6642 65.0342 87.9934 64.6164 89.3562 64.6108C89.9538 64.5266 90.5559 64.4793 91.1592 64.4692C91.6549 64.54 92.4284 64.54 93.1311 64.6816C93.6268 64.7524 94.1171 64.8941 94.5419 64.9649C94.9862 65.0303 95.4377 65.0303 95.882 64.9649C97.0353 64.774 98.1524 64.4065 99.1938 63.8754L99.4771 65.003C97.9247 65.8528 96.1652 66.6372 94.4711 66.6372C93.6976 66.6372 92.7825 66.5663 91.9327 66.4955C90.5219 66.3539 89.2582 66.1469 88.8333 66.1469C87.3731 66.2123 85.9688 66.7279 84.8133 67.6231L84.8351 67.6394Z" fill="#004D8F"/>
<path fill-rule="evenodd" clip-rule="evenodd" d="M83.7071 73.9145L82.231 73.2064C84.3022 72.2186 86.476 71.4623 88.7131 70.9513C89.9233 70.8146 91.124 70.6035 92.3083 70.3194C92.7331 71.3053 93.5066 72.2913 94.5634 72.2913C95.1753 72.1975 95.77 72.014 96.3283 71.7466C97.1018 71.3925 97.8045 71.0384 98.2294 70.8968C98.6542 70.7552 99.9888 70.1233 101.187 69.5622C101.612 69.3498 102.821 68.7833 102.881 68.7833L103.655 69.2082C103.408 70.2865 103.054 71.3376 102.598 72.3458C102.465 72.6439 102.301 72.927 102.108 73.1901C101.606 73.7081 101.059 74.1803 100.474 74.6009C99.5865 75.2127 98.6683 75.7782 97.7228 76.295C96.9462 76.7591 96.1463 77.1827 95.326 77.5642L94.9719 76.8016C96.2142 76.0705 97.4145 75.2703 98.5671 74.4048C99.0421 74.0661 99.4884 73.689 99.9016 73.2772C100.122 73.1032 100.307 72.8887 100.446 72.6454C100.877 72.0819 101.232 71.4648 101.503 70.8096C101.007 71.0221 99.3242 71.8718 98.5453 72.2205C97.6247 72.7162 96.2193 73.4189 95.3696 73.8546C94.8918 74.1092 94.3634 74.2544 93.8226 74.2795C93.4845 74.2742 93.1557 74.1676 92.879 73.9733C92.6022 73.7791 92.3901 73.5062 92.2701 73.1901C91.7254 72.2041 91.1426 72.1333 89.5465 72.1333C87.4669 72.1444 85.435 72.7574 83.6963 73.8982L83.7071 73.9145Z" fill="#004D8F"/>
<path fill-rule="evenodd" clip-rule="evenodd" d="M92.379 69.2628C92.379 69.2628 92.1665 68.4185 92.0249 68.0644C92.2339 68.0156 92.4476 67.9901 92.6622 67.9881C93.1525 67.9881 94.5633 68.1298 95.1298 68.1298C97.2433 68.1298 98.0168 67.4924 98.6541 66.9314C98.9871 66.6076 99.3852 66.3586 99.822 66.2008C100.259 66.043 100.724 65.9801 101.187 66.0162C102.28 66.0518 103.357 66.2901 104.363 66.7189L104.292 67.9173C103.595 67.5561 102.822 67.3692 102.037 67.3726C101.579 67.3268 101.118 67.4 100.697 67.585C100.35 67.8212 100.021 68.0815 99.7109 68.364C99.2352 68.7163 98.7127 69.0005 98.1584 69.2083C97.2894 69.5353 96.3622 69.68 95.4348 69.6332C94.4156 69.6235 93.4002 69.5048 92.4062 69.2791L92.379 69.2628Z" fill="#004D8F"/>
<path fill-rule="evenodd" clip-rule="evenodd" d="M78.8485 78.0708L79.8345 77.6514C80.8174 78.0799 81.8649 78.3413 82.9339 78.4249C83.4004 78.4014 83.8568 78.2808 84.2739 78.0708C84.5572 77.9292 87.8691 76.3114 89.4869 75.7449C89.8903 75.5775 90.3198 75.4817 90.7561 75.4616C91.181 75.4616 91.181 75.6032 91.3008 75.8157C91.5841 76.3114 94.0244 79.7649 94.2586 79.9773C96.3068 79.34 98.4203 78.4249 99.6187 77.2973C100.817 76.1697 101.945 74.6881 103.001 73.5605C103.31 73.2085 103.666 72.9006 104.058 72.6454C105.115 72.1007 108.416 72.0081 109.767 72.1007L108.993 73.2283C106.526 73.2283 105.18 73.5115 104.548 73.9364C104.198 74.2887 103.876 74.6675 103.584 75.0694C102.74 76.1262 101.825 77.6078 101.471 77.8856C102.25 78.4887 103.209 78.8128 104.194 78.8062C106.237 78.8062 107.719 77.537 108.492 76.8289L109.195 77.1829C108.696 77.8946 108.076 78.5139 107.365 79.0132C106.605 79.5141 105.773 79.8944 104.897 80.1407C103.699 79.9338 101.084 79.3672 100.458 79.2964C98.2024 80.2116 94.4656 81.6932 93.2672 82.0473C92.9955 82.1407 92.7102 82.1886 92.4229 82.1889C91.2256 82.26 90.0251 82.26 88.8278 82.1889C88.1225 82.2088 87.4166 82.1851 86.7143 82.1181L85.5867 80.9905C86.3253 81.1631 87.084 81.2346 87.8418 81.2029C89.1677 81.2009 90.4897 81.0585 91.7856 80.7781C92.2105 80.6364 92.2813 80.424 92.1397 80.0754C91.9039 79.4798 91.5707 78.9275 91.1537 78.4412C90.8218 78.1134 90.4688 77.8077 90.097 77.5261C89.8137 77.3137 89.5523 77.2428 88.6861 77.5261C87.3066 78.1226 85.9658 78.8048 84.6716 79.5688C84.1238 79.8428 83.4911 79.8936 82.9067 79.7104C81.4797 79.3454 80.1064 78.796 78.8213 78.0763L78.8485 78.0708Z" fill="#004D8F"/>
<path fill-rule="evenodd" clip-rule="evenodd" d="M85.2595 52.4145C85.4788 52.4004 85.6855 52.3069 85.8409 52.1515C85.9963 51.9961 86.0898 51.7895 86.1039 51.5702C86.1024 51.3467 86.013 51.1327 85.855 50.9747C85.697 50.8167 85.483 50.7273 85.2595 50.7258C85.1474 50.7212 85.0356 50.7399 84.9311 50.7807C84.8265 50.8215 84.7316 50.8835 84.6523 50.9629C84.5729 51.0422 84.5109 51.1371 84.4701 51.2417C84.4293 51.3462 84.4106 51.458 84.4152 51.5702C84.4167 51.7936 84.5061 52.0076 84.6641 52.1656C84.8221 52.3236 85.0361 52.413 85.2595 52.4145V52.4145Z" fill="#004D8F"/>
<path fill-rule="evenodd" clip-rule="evenodd" d="M117.191 101.118C117.177 100.792 117.036 100.485 116.799 100.261C116.562 100.038 116.248 99.9149 115.922 99.9195H114.157C113.831 99.9149 113.516 100.038 113.279 100.261C113.042 100.485 112.902 100.792 112.888 101.118L112.948 120.009C112.946 120.167 112.976 120.323 113.036 120.469C113.096 120.615 113.184 120.748 113.295 120.859C113.407 120.971 113.54 121.059 113.686 121.119C113.832 121.179 113.988 121.209 114.146 121.207H115.911C116.237 121.212 116.552 121.089 116.789 120.865C117.025 120.642 117.166 120.334 117.18 120.009V101.118H117.191Z" fill="#004D8F"/>
<path fill-rule="evenodd" clip-rule="evenodd" d="M119.446 101.684V102.529C119.44 102.623 119.454 102.717 119.487 102.806C119.52 102.894 119.571 102.975 119.638 103.042C119.704 103.109 119.784 103.161 119.872 103.194C119.96 103.228 120.055 103.243 120.149 103.237H132.558C132.835 103.229 133.099 103.115 133.296 102.918C133.492 102.722 133.606 102.458 133.614 102.18V100.699C133.617 100.559 133.592 100.42 133.54 100.291C133.488 100.161 133.41 100.043 133.312 99.9446C133.213 99.8459 133.095 99.7682 132.966 99.7161C132.836 99.6641 132.697 99.6388 132.558 99.6417C132.558 99.6417 120.574 100.84 120.154 100.911C120.057 100.913 119.96 100.935 119.871 100.975C119.782 101.016 119.702 101.074 119.637 101.146C119.571 101.219 119.52 101.304 119.489 101.396C119.457 101.489 119.444 101.587 119.452 101.684H119.446Z" fill="#004D8F"/>
<path fill-rule="evenodd" clip-rule="evenodd" d="M109.363 121.207C108.706 121.23 108.051 121.119 107.438 120.88C106.825 120.641 106.267 120.279 105.799 119.817C105.331 119.355 104.962 118.802 104.715 118.193C104.468 117.583 104.348 116.93 104.363 116.272V108.733H103.442C103.223 108.717 103.018 108.622 102.863 108.467C102.708 108.313 102.614 108.107 102.598 107.889V106.619C102.6 106.396 102.69 106.182 102.848 106.024C103.005 105.865 103.218 105.774 103.442 105.77H104.363V101.118C104.361 100.96 104.391 100.804 104.451 100.657C104.511 100.511 104.599 100.379 104.71 100.267C104.822 100.156 104.955 100.067 105.101 100.008C105.247 99.948 105.403 99.918 105.561 99.9194H107.32C107.628 99.9322 107.918 100.065 108.128 100.289C108.339 100.513 108.454 100.81 108.448 101.118V105.77H111.172C111.284 105.766 111.396 105.785 111.5 105.827C111.605 105.868 111.7 105.931 111.779 106.01C111.858 106.09 111.92 106.185 111.961 106.29C112.002 106.395 112.02 106.507 112.016 106.619V107.889C112.012 108.111 111.921 108.324 111.764 108.481C111.606 108.638 111.394 108.729 111.172 108.733H108.448V115.711C108.426 116.022 108.471 116.334 108.581 116.626C108.69 116.918 108.86 117.183 109.081 117.404C109.301 117.624 109.567 117.795 109.859 117.904C110.151 118.013 110.463 118.059 110.774 118.037H111.057C111.178 118.033 111.299 118.054 111.412 118.099C111.525 118.143 111.627 118.211 111.713 118.296C111.798 118.382 111.866 118.485 111.91 118.597C111.955 118.71 111.976 118.831 111.972 118.952V120.281C111.968 120.522 111.87 120.753 111.7 120.923C111.529 121.094 111.299 121.192 111.057 121.196L109.363 121.207Z" fill="#004D8F"/>
<path fill-rule="evenodd" clip-rule="evenodd" d="M88.2171 113.243C88.2171 109.223 85.8257 105.209 80.3949 105.209C75.3944 105.209 72.6436 109.158 72.6436 113.243C72.6436 117.601 75.6014 121.49 80.4657 121.49C83.7776 121.49 87.0023 119.796 87.656 116.909C87.6729 116.803 87.6678 116.694 87.6412 116.589C87.6146 116.484 87.567 116.386 87.5013 116.301C87.4355 116.215 87.353 116.144 87.2588 116.091C87.1646 116.038 87.0607 116.005 86.9533 115.994H84.5566C84.3582 115.986 84.1615 116.033 83.9877 116.129C83.814 116.225 83.6697 116.367 83.5706 116.539C83.2228 117.03 82.7548 117.425 82.2112 117.684C81.6677 117.944 81.0667 118.059 80.4657 118.02C79.528 118.026 78.6241 117.67 77.9416 117.027C77.259 116.384 76.8501 115.503 76.7998 114.567H86.8825C87.0638 114.59 87.248 114.572 87.4209 114.512C87.5938 114.453 87.7508 114.355 87.8797 114.226C88.0087 114.096 88.1062 113.939 88.1647 113.765C88.2232 113.592 88.2411 113.408 88.2171 113.227V113.243ZM76.8706 111.566C76.9631 110.701 77.3766 109.903 78.0292 109.33C78.6818 108.756 79.526 108.447 80.3949 108.466C81.2826 108.439 82.1493 108.74 82.8288 109.312C83.5083 109.883 83.9529 110.686 84.0772 111.566H76.8706Z" fill="#004D8F"/>
<path fill-rule="evenodd" clip-rule="evenodd" d="M134.034 113.243C134.034 109.223 131.637 105.209 126.211 105.209C121.205 105.209 118.455 109.158 118.455 113.243C118.455 117.601 121.418 121.49 126.282 121.49C129.594 121.49 132.819 119.796 133.472 116.909C133.489 116.802 133.484 116.693 133.457 116.588C133.43 116.483 133.382 116.385 133.316 116.299C133.25 116.213 133.166 116.142 133.072 116.09C132.977 116.037 132.872 116.005 132.764 115.994H130.378C130.181 115.99 129.985 116.038 129.812 116.134C129.639 116.229 129.494 116.369 129.393 116.539C129.037 117.038 128.558 117.437 128.002 117.696C127.447 117.956 126.834 118.068 126.222 118.02C125.296 118.012 124.407 117.649 123.739 117.008C123.071 116.366 122.673 115.492 122.627 114.567H132.704C132.886 114.591 133.071 114.573 133.245 114.514C133.418 114.456 133.576 114.358 133.705 114.228C133.835 114.098 133.933 113.941 133.992 113.767C134.051 113.593 134.069 113.409 134.044 113.227L134.034 113.243ZM122.687 111.566C122.784 110.686 123.203 109.873 123.862 109.282C124.521 108.692 125.375 108.366 126.26 108.366C127.145 108.366 127.999 108.692 128.659 109.282C129.318 109.873 129.736 110.686 129.834 111.566H122.687Z" fill="#004D8F"/>
<path fill-rule="evenodd" clip-rule="evenodd" d="M100.964 100.126H68.4166C68.2406 100.126 68.0663 100.161 67.9038 100.228C67.7412 100.296 67.5935 100.394 67.469 100.519C67.3446 100.643 67.2459 100.791 67.1785 100.954C67.1112 101.116 67.0765 101.29 67.0765 101.466L67.1474 114.289C67.1474 114.289 60.1695 101.603 59.8154 100.971C59.5998 100.603 59.2908 100.298 58.9197 100.088C58.5486 99.8772 58.1285 99.7685 57.7019 99.7723H55.0219C54.6675 99.7723 54.3275 99.9128 54.0763 100.163C53.8252 100.413 53.6834 100.752 53.6819 101.107V119.856C53.6758 120.034 53.7063 120.211 53.7715 120.376C53.8367 120.541 53.9352 120.692 54.0609 120.817C54.1865 120.943 54.3367 121.041 54.502 121.107C54.6673 121.172 54.8443 121.202 55.0219 121.196H56.716C56.8934 121.202 57.0701 121.172 57.2351 121.107C57.4002 121.041 57.55 120.943 57.6753 120.817C57.8005 120.691 57.8985 120.541 57.963 120.376C58.0276 120.21 58.0574 120.033 58.0506 119.856L57.9852 106.75C57.9852 106.75 65.0121 119.518 65.3825 120.009C65.5711 120.384 65.8644 120.697 66.2268 120.91C66.5892 121.122 67.0054 121.226 67.4252 121.207H69.9145C70.0924 121.214 70.2697 121.184 70.4354 121.119C70.6011 121.054 70.7516 120.956 70.8774 120.83C71.0032 120.704 71.1017 120.554 71.1666 120.388C71.2315 120.222 71.2614 120.045 71.2545 119.867V103.308H100.964C101.205 103.302 101.436 103.203 101.606 103.031C101.777 102.86 101.874 102.629 101.879 102.387V101.047C101.874 100.805 101.777 100.574 101.606 100.403C101.436 100.231 101.205 100.132 100.964 100.126V100.126Z" fill="#004D8F"/>
<path fill-rule="evenodd" clip-rule="evenodd" d="M95.6907 108.297C97.1015 108.297 98.1583 108.793 98.5832 109.708C98.7194 110.133 99.0734 110.204 99.5691 110.204H101.541C101.724 110.192 101.897 110.114 102.027 109.983C102.156 109.853 102.233 109.679 102.244 109.496C102.244 107.241 99.5201 105.198 95.7071 105.198C91.7579 105.198 89.1704 107.099 89.1704 110.062C89.1704 112.388 91.0007 113.728 93.185 114.36C94.2418 114.572 96.0067 114.992 96.851 115.275C97.6953 115.558 98.5451 115.771 98.5451 116.544C98.5451 117.814 97.2759 118.178 95.8215 118.178C94.4814 118.178 93.1414 117.634 92.7928 116.626C92.5804 116.081 92.1555 115.994 91.5944 115.994H89.5572C89.3567 116.008 89.1679 116.094 89.0258 116.236C88.8836 116.378 88.7977 116.567 88.7837 116.768V117.051C88.7837 119.23 91.7415 121.49 95.8324 121.49C98.654 121.49 102.669 120.292 102.669 116.484C102.669 114.229 101.187 112.671 98.7194 112.045C97.8042 111.833 95.5491 111.201 95.0589 111.13C94.1383 110.847 93.294 110.585 93.294 109.861C93.294 108.662 94.3507 108.308 95.6907 108.308V108.297Z" fill="#004D8F"/>
<defs>
<filter id="filter0_d_4054:97776" x="0.99824" y="0" width="184.004" height="162.005" filterUnits="userSpaceOnUse" color-interpolation-filters="sRGB">
<feFlood flood-opacity="0" result="BackgroundImageFix"/>
<feColorMatrix in="SourceAlpha" type="matrix" values="0 0 0 0 0 0 0 0 0 0 0 0 0 0 0 0 0 0 127 0" result="hardAlpha"/>
<feOffset dy="4.00352"/>
<feGaussianBlur stdDeviation="1.00088"/>
<feColorMatrix type="matrix" values="0 0 0 0 0 0 0 0 0 0 0 0 0 0 0 0 0 0 0.05 0"/>
<feBlend mode="normal" in2="BackgroundImageFix" result="effect1_dropShadow_4054:97776"/>
<feBlend mode="normal" in="SourceGraphic" in2="effect1_dropShadow_4054:97776" result="shape"/>
</filter>
</defs>
</svg>
